<mxfile host="app.diagrams.net" agent="Mozilla/5.0 (Macintosh; Intel Mac OS X 10_15_7) AppleWebKit/537.36 (KHTML, like Gecko) Chrome/138.0.0.0 Safari/537.36" version="28.0.7">
  <diagram name="Page-1" id="AVT-TqWyHdbHqv9SzNXz">
    <mxGraphModel dx="1426" dy="790" grid="1" gridSize="10" guides="1" tooltips="1" connect="1" arrows="1" fold="1" page="1" pageScale="1" pageWidth="850" pageHeight="1100" math="0" shadow="0">
      <root>
        <mxCell id="0" />
        <mxCell id="1" parent="0" />
        <mxCell id="6kvLNTDZqLlbQICBbRyy-1" value="/api&lt;div&gt;&lt;br&gt;&lt;/div&gt;&lt;div style=&quot;text-align: left;&quot;&gt;&lt;font face=&quot;Courier New&quot;&gt;main.py&lt;/font&gt;&lt;/div&gt;&lt;div style=&quot;text-align: left;&quot;&gt;&lt;font face=&quot;Courier New&quot;&gt;models.py&lt;/font&gt;&lt;/div&gt;&lt;div style=&quot;text-align: left;&quot;&gt;&lt;font face=&quot;Courier New&quot;&gt;routes.py&lt;/font&gt;&lt;/div&gt;&lt;div style=&quot;text-align: left;&quot;&gt;&lt;br&gt;&lt;/div&gt;" style="whiteSpace=wrap;html=1;aspect=fixed;" vertex="1" parent="1">
          <mxGeometry x="296.5" y="30" width="120" height="120" as="geometry" />
        </mxCell>
        <mxCell id="6kvLNTDZqLlbQICBbRyy-2" value="/db&lt;div&gt;&lt;br&gt;&lt;div&gt;&lt;font face=&quot;Courier New&quot;&gt;article_repo.py&lt;/font&gt;&lt;/div&gt;&lt;div&gt;&lt;font face=&quot;Courier New&quot;&gt;connection.py&lt;/font&gt;&lt;/div&gt;&lt;div&gt;&lt;font face=&quot;Courier New&quot;&gt;init_deb.py&lt;/font&gt;&lt;/div&gt;&lt;div&gt;&lt;font face=&quot;Courier New&quot;&gt;interaction_repo.py&lt;/font&gt;&lt;/div&gt;&lt;div&gt;&lt;font face=&quot;Courier New&quot;&gt;queries.py&lt;/font&gt;&lt;/div&gt;&lt;div&gt;&lt;font face=&quot;Courier New&quot;&gt;user_repo.py&lt;/font&gt;&lt;/div&gt;&lt;/div&gt;" style="whiteSpace=wrap;html=1;aspect=fixed;align=center;" vertex="1" parent="1">
          <mxGeometry x="287" y="160" width="139.5" height="139.5" as="geometry" />
        </mxCell>
        <mxCell id="6kvLNTDZqLlbQICBbRyy-3" value="/fetcher&lt;div&gt;&lt;br&gt;&lt;/div&gt;&lt;div&gt;&lt;font face=&quot;Courier New&quot;&gt;main_fetch.py&lt;/font&gt;&lt;/div&gt;&lt;div&gt;&lt;font face=&quot;Courier New&quot;&gt;newsdata_client.py&lt;/font&gt;&lt;/div&gt;&lt;div&gt;&lt;font face=&quot;Courier New&quot;&gt;save_articles.py&lt;/font&gt;&lt;/div&gt;" style="whiteSpace=wrap;html=1;aspect=fixed;" vertex="1" parent="1">
          <mxGeometry x="291.5" y="310" width="130" height="130" as="geometry" />
        </mxCell>
        <mxCell id="6kvLNTDZqLlbQICBbRyy-7" value="&lt;div&gt;&lt;span style=&quot;background-color: transparent; color: light-dark(rgb(0, 0, 0), rgb(255, 255, 255));&quot;&gt;/nlp&lt;/span&gt;&lt;/div&gt;&lt;div&gt;&lt;br&gt;&lt;div&gt;&lt;font face=&quot;Courier New&quot;&gt;liked_title.py&lt;/font&gt;&lt;/div&gt;&lt;div&gt;&lt;font face=&quot;Courier New&quot;&gt;similarity.py&lt;/font&gt;&lt;/div&gt;&lt;/div&gt;" style="whiteSpace=wrap;html=1;aspect=fixed;" vertex="1" parent="1">
          <mxGeometry x="287.25" y="450" width="139.25" height="139.25" as="geometry" />
        </mxCell>
        <mxCell id="6kvLNTDZqLlbQICBbRyy-8" value="&lt;div&gt;/recommender&lt;/div&gt;&lt;div&gt;&lt;font face=&quot;Courier New&quot;&gt;&lt;br&gt;&lt;/font&gt;&lt;/div&gt;&lt;div&gt;&lt;font face=&quot;Courier New&quot;&gt;recommender.py&lt;/font&gt;&lt;/div&gt;&lt;div&gt;&lt;font face=&quot;Courier New&quot;&gt;scorer.pt&lt;/font&gt;&lt;/div&gt;" style="whiteSpace=wrap;html=1;aspect=fixed;" vertex="1" parent="1">
          <mxGeometry x="286" y="600" width="139.25" height="139.25" as="geometry" />
        </mxCell>
        <mxCell id="6kvLNTDZqLlbQICBbRyy-10" value="" style="edgeStyle=orthogonalEdgeStyle;rounded=0;orthogonalLoop=1;jettySize=auto;html=1;" edge="1" parent="1" source="6kvLNTDZqLlbQICBbRyy-9" target="6kvLNTDZqLlbQICBbRyy-1">
          <mxGeometry relative="1" as="geometry" />
        </mxCell>
        <mxCell id="6kvLNTDZqLlbQICBbRyy-9" value="API Endpoints" style="rounded=1;whiteSpace=wrap;html=1;" vertex="1" parent="1">
          <mxGeometry x="510" y="60" width="100" height="60" as="geometry" />
        </mxCell>
        <mxCell id="6kvLNTDZqLlbQICBbRyy-12" value="" style="edgeStyle=orthogonalEdgeStyle;rounded=0;orthogonalLoop=1;jettySize=auto;html=1;" edge="1" parent="1" source="6kvLNTDZqLlbQICBbRyy-11" target="6kvLNTDZqLlbQICBbRyy-2">
          <mxGeometry relative="1" as="geometry" />
        </mxCell>
        <mxCell id="6kvLNTDZqLlbQICBbRyy-11" value="Database Layer" style="rounded=1;whiteSpace=wrap;html=1;" vertex="1" parent="1">
          <mxGeometry x="510" y="199.75" width="100" height="60" as="geometry" />
        </mxCell>
        <mxCell id="6kvLNTDZqLlbQICBbRyy-14" value="" style="edgeStyle=orthogonalEdgeStyle;rounded=0;orthogonalLoop=1;jettySize=auto;html=1;" edge="1" parent="1" source="6kvLNTDZqLlbQICBbRyy-13" target="6kvLNTDZqLlbQICBbRyy-3">
          <mxGeometry relative="1" as="geometry" />
        </mxCell>
        <mxCell id="6kvLNTDZqLlbQICBbRyy-13" value="Fetching New Articles" style="rounded=1;whiteSpace=wrap;html=1;" vertex="1" parent="1">
          <mxGeometry x="510" y="345" width="100" height="60" as="geometry" />
        </mxCell>
        <mxCell id="6kvLNTDZqLlbQICBbRyy-16" value="" style="edgeStyle=orthogonalEdgeStyle;rounded=0;orthogonalLoop=1;jettySize=auto;html=1;" edge="1" parent="1" source="6kvLNTDZqLlbQICBbRyy-15" target="6kvLNTDZqLlbQICBbRyy-7">
          <mxGeometry relative="1" as="geometry" />
        </mxCell>
        <mxCell id="6kvLNTDZqLlbQICBbRyy-15" value="NLP Logic Layer" style="rounded=1;whiteSpace=wrap;html=1;" vertex="1" parent="1">
          <mxGeometry x="510" y="489.63" width="100" height="60" as="geometry" />
        </mxCell>
        <mxCell id="6kvLNTDZqLlbQICBbRyy-18" value="" style="edgeStyle=orthogonalEdgeStyle;rounded=0;orthogonalLoop=1;jettySize=auto;html=1;" edge="1" parent="1" source="6kvLNTDZqLlbQICBbRyy-17" target="6kvLNTDZqLlbQICBbRyy-8">
          <mxGeometry relative="1" as="geometry" />
        </mxCell>
        <mxCell id="6kvLNTDZqLlbQICBbRyy-17" value="Recommendation Layer" style="rounded=1;whiteSpace=wrap;html=1;" vertex="1" parent="1">
          <mxGeometry x="510" y="639.63" width="100" height="60" as="geometry" />
        </mxCell>
      </root>
    </mxGraphModel>
  </diagram>
</mxfile>
